<?xml version="1.0" encoding="utf-8"?>
<!-- Generator: Adobe Illustrator 22.1.0, SVG Export Plug-In . SVG Version: 6.00 Build 0)  -->
<svg version="1.1" id="Слой_1" xmlns="http://www.w3.org/2000/svg" xmlns:xlink="http://www.w3.org/1999/xlink" x="0px" y="0px"
	 width="208.4317017px" height="204.4547119px" viewBox="0 0 208.4317017 204.4547119"
	 style="enable-background:new 0 0 208.4317017 204.4547119;" xml:space="preserve">
<style type="text/css">
	.st0{fill:#CF582C;}
	.st1{fill:#A83D1C;}
	.st2{fill:#D57E47;}
	.st3{fill:#D57D50;}
	.st4{fill:#621618;}
	.st5{fill:#3C2056;}
	.st6{fill:#E8B328;}
	.st7{display:none;}
	.st8{display:inline;fill:#E9B100;}
	.st9{fill:#FDF5CC;}
	.st10{fill:#F3CC2D;}
	.st11{fill-rule:evenodd;clip-rule:evenodd;fill:#3C2056;}
	.st12{fill-rule:evenodd;clip-rule:evenodd;fill:#CF582C;}
	.st13{fill-rule:evenodd;clip-rule:evenodd;fill:#621618;}
	.st14{fill:#FFFFFF;}
	.st15{fill:#CB2128;}
	.st16{fill:#00ABEB;}
</style>
<g>
	<path class="st0" d="M110.0079117,94.8681946h-5.7910995v-5.7905045H40.5288124v5.7905045h-5.7899971v69.4781036h5.7899971
		v-57.8980026h5.7901001v-5.7900009h5.7900009v5.7900009h-5.7900009v74.8485947h5.7900009v5.7875977H34.7388153v11.5805969
		h28.9496994v-23.1591949h-5.7895012v-5.789505h28.9491997v5.789505h-5.7901001v23.1591949h28.9497986v-11.5805969H92.6382141
		v-5.7875977h5.7895966v-74.8485947h-5.7895966v-5.7900009h5.7895966v5.7900009h5.7890015v28.9486923h23.160202v-5.7894897
		h-17.3691025V94.8681946z M133.1661072,129.6074982v17.3695984h11.5800018v-17.3695984H133.1661072z M138.9571075,118.0273895
		h-5.7910004v5.7900009h5.7910004V118.0273895z M23.1597157,129.6074982H17.369215v-11.5801086h-5.7890997v-17.3690948h-5.79
		v23.1590958h5.79v11.5795975h5.7890997v5.7901001h5.7905006v5.7900085h5.789999v-11.5801086h-5.789999V129.6074982z"/>
</g>
<g>
	<path class="st1" d="M40.5288124,89.0776901v5.7905045h57.8989983v5.7901001h5.7890015V89.0776901H40.5288124z
		 M104.2168121,106.4482956h5.7910995v-5.7900009h-5.7910995V106.4482956z M104.2168121,118.0273895h5.7910995v-5.7900009
		h-5.7910995V118.0273895z M104.2168121,129.6074982h5.7910995v-5.7901077h-5.7910995V129.6074982z M138.9571075,118.0273895
		h-5.7910004v5.7900009h5.7910004V118.0273895z M138.9571075,129.6074982v5.7894897h5.7890015v-5.7894897H138.9571075z
		 M138.9571075,146.9770966h5.7890015v-5.7900085h-5.7890015V146.9770966z M46.3189125,112.2373886h5.7900009v-5.789093h-5.7900009
		V112.2373886z M46.3189125,123.8173904h5.7900009v-5.7900009h-5.7900009V123.8173904z M46.3189125,135.3969879h5.7900009
		v-5.7894897h-5.7900009V135.3969879z M46.3189125,146.9770966h5.7900009v-5.7900085h-5.7900009V146.9770966z
		 M46.3189125,158.5566864h5.7900009v-5.7899933h-5.7900009V158.5566864z M46.3189125,170.1362915h5.7900009v-5.7899933h-5.7900009
		V170.1362915z M46.3189125,169.7163849h5.7900009v-5.7901001h-5.7900009V169.7163849z M57.8990135,181.2968903h5.7895012
		v-5.7910004h-5.7895012V181.2968903z M57.8990135,192.8750916h5.7895012v-5.7906036h-5.7895012V192.8750916z
		 M81.0581131,181.2968903h5.7901001v-5.7910004h-5.7901001V181.2968903z M81.0581131,192.8750916h5.7901001v-5.7906036h-5.7901001
		V192.8750916z M23.1597157,146.9770966h5.789999v-11.5801086h-5.789999V146.9770966z M17.369215,129.6074982v5.7894897h5.7905006
		v-5.7894897H17.369215z"/>
</g>
<g>
	<polygon class="st2" points="81.0420151,135.1069946 81.0420151,129.3169861 63.6729126,129.3169861 63.6729126,135.1069946 
		57.8829155,135.1069946 57.7593155,154.055191 63.5494156,154.055191 63.5494156,159.8447876 80.9185104,159.8447876 
		80.9185104,154.055191 86.4024124,154.055191 86.8321152,135.1069946 	"/>
</g>
<g>
	<path class="st3" d="M34.7388153,106.4482956h11.5800972v-5.7900009H34.7388153V106.4482956z M34.7388153,118.0273895h5.7899971
		v-5.7900009h-5.7899971V118.0273895z M34.7388153,129.6074982h5.7899971v-5.7901077h-5.7899971V129.6074982z
		 M34.7388153,141.187088h5.7899971v-5.7901001h-5.7899971V141.187088z M34.7388153,152.7666931h5.7899971v-5.7895966h-5.7899971
		V152.7666931z M34.7388153,164.3462982h5.7899971v-5.7896118h-5.7899971V164.3462982z M34.7388153,198.6650848h5.7899971
		v-11.5805969h-5.7899971V198.6650848z M63.6885147,163.9262848v5.7901001h17.3695984v-5.7901001H63.6885147z"/>
</g>
<g>
	<path class="st4" d="M40.5288124,118.0756912h11.580101v-5.7900009h-11.580101V118.0756912z M52.1089134,129.6552887v-5.7899933
		h-11.580101v5.7899933H52.1089134z M52.1089134,141.2358856v-5.7904968h-11.580101v5.7904968H52.1089134z M52.1089134,152.8144989
		v-5.7900085h-11.580101v5.7900085H52.1089134z M52.1089134,164.3950958v-5.7904968h-11.580101v5.7904968H52.1089134z
		 M40.5288124,175.5546875h11.580101v-5.7894897h-11.580101V175.5546875z M115.7969131,106.4956894h-11.580101v5.7900009h11.580101
		V106.4956894z M115.7969131,118.0756912h-11.580101v5.7896042h11.580101V118.0756912z M92.6382141,112.2856903v5.7900009h11.578598
		v-5.7900009H92.6382141z M92.6382141,123.8652954v5.7899933h11.578598v-5.7899933H92.6382141z M92.6382141,141.2358856h11.578598
		v-5.7904968h-11.578598V141.2358856z M92.6382141,152.8144989h11.578598v-5.7900085h-11.578598V152.8144989z
		 M92.6382141,164.3950958h11.578598v-5.7904968h-11.578598V164.3950958z M92.6382141,175.5546875h11.578598v-5.7894897h-11.578598
		V175.5546875z M75.2686234,187.1342926h11.5795898v-5.789505H75.2686234V187.1342926z M75.2686234,198.7129974h11.5795898
		v-5.7891083H75.2686234V198.7129974z M57.8990135,187.1342926h11.5796089v-5.789505H57.8990135V187.1342926z
		 M57.8990135,198.7129974h11.5796089v-5.7891083H57.8990135V198.7129974z M98.4278107,192.9238892h5.7890015v-5.7895966h-5.7890015
		V192.9238892z M40.5288124,192.9238892h5.7901001v-5.7895966h-5.7901001V192.9238892z M81.0581131,118.0756912H63.6885147
		v5.7896042h17.3695984V118.0756912z M57.8990135,112.2856903h28.9491997v-5.7900009H57.8990135V112.2856903z
		 M81.0581131,94.9165955H63.6885147v5.7889938h17.3695984V94.9165955z M40.5288124,100.7055893v-5.7889938h-5.7899971v5.7889938
		H40.5288124z M110.0079117,100.7055893v-5.7889938h-5.7910995v5.7889938H110.0079117z M34.7388153,106.4956894v5.7900009h5.7899971
		v-5.7900009H34.7388153z M34.7388153,123.8652954h5.7899971v-5.7896042h-5.7899971V123.8652954z M34.7388153,135.4453888h5.7899971
		v-5.7901001h-5.7899971V135.4453888z M34.7388153,147.0244904h5.7899971v-5.7886047h-5.7899971V147.0244904z
		 M34.7388153,158.604599h5.7899971v-5.7901001h-5.7899971V158.604599z M104.2168121,135.4453888h5.7910995v-5.7901001h-5.7910995
		V135.4453888z M115.7969131,141.2358856h5.7891006v-11.5805969h-5.7891006V141.2358856z M138.9571075,135.4453888v5.7904968
		h5.7890015v-5.7904968H138.9571075z"/>
</g>
<g>
	<g>
		<polygon class="st5" points="28.949707,94.8681564 28.949707,129.6074829 23.159729,129.6074829 23.159729,135.3969727 
			28.949707,135.3969727 28.949707,146.9771118 23.159729,146.9771118 23.159729,152.7666626 28.949707,152.7666626 
			28.949707,164.3463135 34.7388306,164.3463135 34.7388306,94.8681564 		"/>
		<rect x="11.5801392" y="135.3969727" class="st5" width="5.7890625" height="5.7901001"/>
		<rect x="17.3692017" y="118.0273972" class="st5" width="5.7905273" height="11.5800781"/>
		<rect x="5.7901001" y="94.8681564" class="st5" width="5.7900391" height="5.7901001"/>
		<rect y="100.6582565" class="st5" width="5.7901001" height="23.1591187"/>
		<rect x="133.1661377" y="146.9771118" class="st5" width="11.5799561" height="5.7895508"/>
		<rect x="17.3692017" y="141.1870728" class="st5" width="5.7905273" height="5.7900391"/>
		<rect x="11.5801392" y="100.6582565" class="st5" width="5.7890625" height="17.3691406"/>
		<rect x="5.7901001" y="123.8173752" class="st5" width="5.7900391" height="11.5795898"/>
		<rect x="46.3189087" y="100.6582565" class="st5" width="5.789978" height="5.7900391"/>
		<polygon class="st5" points="40.5288086,89.0776901 104.2167969,89.0776901 104.2167969,83.2880783 40.5288086,83.2880783 
			40.5288086,89.0776901 34.7388306,89.0776901 34.7388306,94.8681564 40.5288086,94.8681564 		"/>
		<rect x="104.2167969" y="89.0776901" class="st5" width="5.7911377" height="5.7904663"/>
		<polygon class="st5" points="133.1661377,123.8173752 133.1661377,118.0273972 127.3770142,118.0273972 127.3770142,123.8173752 
			115.796936,123.8173752 115.796936,94.8681564 110.0079346,94.8681564 110.0079346,129.6074829 127.3770142,129.6074829 
			127.3770142,135.3969727 104.2167969,135.3969727 104.2167969,106.4482956 98.4277954,106.4482956 98.4277954,181.296875 
			92.6381836,181.296875 92.6381836,187.0844727 110.0079346,187.0844727 110.0079346,181.296875 104.2167969,181.296875 
			104.2167969,141.1870728 127.3770142,141.1870728 127.3770142,146.9771118 133.1661377,146.9771118 133.1661377,129.6074829 
			144.7460938,129.6074829 144.7460938,146.9771118 150.5371094,146.9771118 150.5371094,123.8173752 		"/>
		<rect x="92.6381836" y="100.6582565" class="st5" width="5.7896118" height="5.7900391"/>
		<polygon class="st5" points="52.1088867,181.296875 46.3189087,181.296875 46.3189087,106.4482956 40.5288086,106.4482956 
			40.5288086,164.3463135 34.7388306,164.3463135 34.7388306,170.1362915 40.5288086,170.1362915 40.5288086,181.296875 
			34.7388306,181.296875 34.7388306,187.0844727 52.1088867,187.0844727 		"/>
		<polygon class="st5" points="81.0581055,198.6651001 81.0581055,175.5058594 86.8482056,175.5058594 86.8482056,169.7163696 
			57.8989868,169.7163696 57.8989868,175.5058594 63.6885376,175.5058594 63.6885376,198.6651001 34.7388306,198.6651001 
			34.7388306,187.0844727 28.949707,187.0844727 28.949707,204.4547119 69.4786377,204.4547119 69.4786377,175.5058594 
			75.2686157,175.5058594 75.2686157,204.4547119 115.796936,204.4547119 115.796936,187.0844727 110.0079346,187.0844727 
			110.0079346,198.6651001 		"/>
		<rect x="133.1661377" y="112.2373581" class="st5" width="11.5806885" height="5.7900391"/>
	</g>
</g>
<g>
	<rect x="153.59935" y="120.9087906" class="st6" width="45" height="45.8333321"/>
	<g class="st7">
		<rect x="167.90448" y="123.81707" class="st8" width="5.7896118" height="5.789978"/>
		<rect x="179.4837036" y="123.81707" class="st8" width="5.7896118" height="5.789978"/>
		<rect x="191.0629272" y="123.81707" class="st8" width="5.7896118" height="5.789978"/>
		<path class="st8" d="M185.2733154,129.6070557v5.7900391h-5.7896118v5.789978h-5.7896118v-5.789978H167.90448v5.789978v5.7900391
			h-5.7895508v-5.7900391v-5.789978h-5.7896118v5.789978v5.7900391v5.789978v5.789978v5.7900391h5.7896118h5.7895508h0.000061
			h5.7895508h5.7896118h5.7896118h5.7896118h5.7896118v-5.7900391v-5.789978v-5.789978v-5.7900391v-5.789978h-5.7896118v-5.7900391
			H185.2733154z M179.4837036,146.9771118v5.789978h-5.7896118v-5.789978H179.4837036z M191.0629272,146.9771118h-5.7896118
			v-5.7900391h5.7896118V146.9771118z"/>
	</g>
	<polygon class="st9" points="202.6420898,100.6570969 202.6420898,94.8670578 196.8525391,94.8670578 191.0629272,94.8670578 
		191.0629272,89.0770798 185.2733154,89.0770798 179.4837036,89.0770798 173.6940918,89.0770798 167.904541,89.0770798 
		167.90448,89.0770798 162.1149292,89.0770798 162.1149292,94.8670578 156.3253174,94.8670578 150.5357056,94.8670578 
		150.5357056,100.6570969 144.7460938,100.6570969 144.7460938,106.4470749 144.7460938,112.2370529 144.7460938,118.027092 
		150.5357056,118.027092 150.5357056,112.2370529 156.3253174,112.2370529 156.3253174,118.027092 156.3253174,123.81707 
		156.3253174,129.6070557 162.1149292,129.6070557 162.1149292,135.3970947 162.1149292,141.1870728 167.904541,141.1870728 
		167.904541,135.3970947 167.904541,129.6070557 167.904541,123.81707 173.6940918,123.81707 173.6940918,118.027092 
		179.4837036,118.027092 185.2733154,118.027092 191.0629272,118.027092 196.8525391,118.027092 196.8525391,112.2370529 
		202.6420898,112.2370529 202.6420898,118.027092 202.6420898,123.81707 202.6420898,129.6070557 208.4317017,129.6070557 
		208.4317017,123.81707 208.4317017,118.027092 208.4317017,112.2370529 208.4317017,106.4470749 208.4317017,100.6570969 	"/>
	<g>
		<rect x="185.2733154" y="141.1870728" class="st10" width="5.7896118" height="5.7900391"/>
		<rect x="173.6940918" y="146.9771118" class="st10" width="5.7896118" height="5.789978"/>
		<rect x="162.1149292" y="141.1870728" class="st10" width="5.7896118" height="5.7900391"/>
		<polygon class="st10" points="196.8525391,112.2370529 196.8525391,118.027092 191.0629272,118.027092 185.2733154,118.027092 
			179.4837036,118.027092 173.6940918,118.027092 173.6940918,123.81707 173.6940918,129.6070557 167.90448,129.6070557 
			167.90448,135.3970947 173.6940918,135.3970947 173.6940918,141.1870728 179.4837036,141.1870728 179.4837036,135.3970947 
			185.2733154,135.3970947 185.2733154,129.6070557 179.4837036,129.6070557 179.4837036,123.81707 185.2733154,123.81707 
			185.2733154,129.6070557 191.0629272,129.6070557 191.0629272,123.81707 196.8525391,123.81707 196.8525391,129.6070557 
			191.0629272,129.6070557 191.0629272,135.3970947 196.8525391,135.3970947 196.8525391,141.1870728 196.8525391,146.9771118 
			196.8525391,152.7670898 196.8525391,158.5570679 196.8525391,164.3471069 191.0629272,164.3471069 185.2733154,164.3471069 
			179.4837036,164.3471069 173.6940918,164.3471069 167.904541,164.3471069 162.1149292,164.3471069 156.3253174,164.3471069 
			156.3253174,158.5570679 156.3253174,152.7670898 156.3253174,146.9771118 156.3253174,141.1870728 156.3253174,135.3970947 
			162.1149292,135.3970947 162.1149292,129.6070557 156.3253174,129.6070557 156.3253174,123.81707 156.3253174,118.027092 
			156.3253174,112.2370529 150.5357056,112.2370529 150.5357056,118.027092 144.7460938,118.027092 138.9564819,118.027092 
			138.9564819,123.81707 144.7460938,123.81707 150.5357056,123.81707 150.5357056,129.6070557 150.5357056,135.3970947 
			150.5357056,141.1870728 150.5357056,146.9771118 144.7460938,146.9771118 144.7460938,152.7670898 138.9564819,152.7670898 
			138.9564819,158.5570679 144.7460938,158.5570679 150.5357056,158.5570679 150.5357056,164.3471069 150.5357056,170.137085 
			156.3253174,170.137085 156.3253174,175.927063 162.1149292,175.927063 167.904541,175.927063 173.6940918,175.927063 
			179.4837036,175.927063 185.2733154,175.927063 191.0629272,175.927063 196.8525391,175.927063 196.8525391,170.137085 
			202.6420898,170.137085 202.6420898,164.3471069 202.6420898,158.5570679 202.6420898,152.7670898 202.6420898,146.9771118 
			202.6420898,141.1870728 202.6420898,135.3970947 202.6420898,129.6070557 202.6420898,123.81707 202.6420898,118.027092 
			202.6420898,112.2370529 		"/>
	</g>
</g>
<g>
	<path class="st11" d="M110.0777588,83.3517151v-0.0018387l6.4939957,0.0018387v-7.086441h5.9025955V33.1747055h-6.4931641
		l-0.089241-24.0843773l-6.403923-0.119154V1.8885409H97.0910034v7.0826344h-5.901329v5.9036884h-6.4944763v6.4933805
		l-25.1156502-0.0589428V14.934638h-6.3752747V9.0903292h-5.3137856l0.2058182-7.2017884H34.5202942v7.0826344h-5.9039078
		v17.7093163l-5.3120308,4.3980694V70.954071h5.9030342v5.9022064h5.3129044v6.4935989h5.903862v5.7278214l69.5837784,0.0004044
		L110.0777588,83.3517151z"/>
	<path class="st12" d="M29.2073898,70.954071h5.3129044v5.9022064h5.903862v6.4935989h69.6536026V76.265274h6.4939957V32.5845757
		h-6.4939957V8.3820963H97.6819611v5.9019833h-5.903038v6.4933805h-6.4935989v5.9030323H59.9036865v-5.9030323h-6.4949112
		v-6.4933805h-4.7214661V8.3820963H35.1099854v24.2024803h-5.9025955V70.954071z M47.0633698,39.1249619h13.0824318v12.2642288
		H47.0633698V39.1249619z M92.0334549,39.1249619h11.4452362v12.2642288H92.0334549V39.1249619z M97.6819611,70.954071H53.4087753
		V57.9667015h6.4949112v7.0839424h12.3953171v-7.0839424h6.4927292v7.0839424H91.778923v-7.0839424h5.903038V70.954071z
		 M84.6743011,51.3891907h-5.7241058v-5.7236671h5.7241058V51.3891907z"/>
	<path class="st13" d="M29.1834698,63.8688583v7.0852127H40.989975v-7.0852127H29.1834698z M29.1834698,51.4735374v6.4931641
		H40.989975v-6.4931641H29.1834698z M29.1834698,39.0771255v6.4929428h13.5773258v-6.4929428H29.1834698z M35.0865021,19.5967655
		v6.4931622h12.9863243v-6.4931622H35.0865021z M66.9630585,26.6804924v11.8058472H73.45578V26.6804924H66.9630585z
		 M78.7674179,26.6804924v11.8058472h6.493988V26.6804924H78.7674179z M103.5598068,19.0070744v7.0828533h6.4935989v-7.0828533
		H103.5598068z M109.4637146,51.4735374v6.4931641h7.083725v-6.4931641H109.4637146z M110.0534058,63.8688583v6.4942551h6.4940338
		v-6.4942551H110.0534058z M65.781929,75.6747055v7.6751709h6.4931564v-7.6751709H65.781929z M78.7674179,75.6747055v7.6751709
		h7.0841675v-7.6751709H78.7674179z"/>
	<g>
		<polygon class="st14" points="35.0613174,32.5845757 35.0613174,26.0899277 14.9178076,26.0322952 14.9178076,33.7646561 
			29.0835571,33.7646561 29.1587219,39.0771255 35.0613174,39.0771255 35.0613174,51.4735374 40.9626465,51.4735374 
			40.9626465,57.9667015 72.2486343,57.9667015 72.2486343,51.4735374 78.7434998,51.4735374 78.7434998,57.9667015 
			109.4376526,57.9667015 109.4376526,51.4735374 116.5205078,51.4735374 116.5205078,32.5845757 		"/>
	</g>
	<g>
		<path class="st14" d="M91.1136322,70.990799v5.9017715h6.4944763V70.990799H91.1136322z M53.336628,76.8925705h6.4923286
			V70.990799H53.336628V76.8925705z"/>
	</g>
	<path class="st15" d="M83.1468582,39.0771255v10.9199982h21.8391647V39.0771255H83.1468582z"/>
	<rect x="44.4684334" y="39.0771255" class="st16" width="21.2511444" height="10.9199991"/>
</g>
</svg>
