<?xml version="1.0" standalone="no"?>
<!DOCTYPE svg PUBLIC "-//W3C//DTD SVG 20010904//EN"
 "http://www.w3.org/TR/2001/REC-SVG-20010904/DTD/svg10.dtd">
<svg version="1.0" xmlns="http://www.w3.org/2000/svg"
 width="192.000000pt" height="192.000000pt" viewBox="0 0 192.000000 192.000000"
 preserveAspectRatio="xMidYMid meet">
<metadata>
Created by potrace 1.11, written by Peter Selinger 2001-2013
</metadata>
<g transform="translate(0.000000,192.000000) scale(0.100000,-0.100000)"
fill="#000000" stroke="none">
<path d="M958 1835 c-2 -2 -44 -6 -93 -9 -50 -2 -90 -5 -90 -6 0 -1 -16 -3
-35 -6 -65 -8 -235 -46 -247 -56 -7 -5 -17 -7 -23 -3 -5 3 -10 1 -10 -6 0 -7
-10 -9 -24 -7 -18 4 -23 1 -19 -9 3 -8 2 -13 -3 -11 -14 3 -67 -28 -87 -52
-11 -13 -16 -29 -11 -42 3 -12 2 -18 -3 -15 -5 4 -10 0 -10 -8 0 -8 7 -17 14
-19 8 -3 11 -10 8 -16 -4 -6 -11 -7 -17 -4 -7 4 -8 2 -4 -5 4 -6 12 -9 17 -6
13 9 11 -9 -4 -24 -7 -8 -7 -11 -1 -8 7 4 14 -3 17 -19 3 -20 1 -24 -12 -20
-13 5 -13 4 1 -7 10 -8 15 -17 11 -20 -3 -4 -1 -7 5 -7 7 0 12 -5 12 -11 0 -5
-6 -7 -12 -3 -9 5 -9 2 1 -9 9 -11 10 -17 2 -17 -6 0 -11 -5 -11 -11 0 -5 4
-8 9 -5 5 3 11 -5 13 -19 3 -14 1 -22 -4 -18 -6 3 -5 -4 1 -16 7 -12 9 -26 6
-31 -3 -5 -1 -11 5 -15 5 -3 10 -13 10 -21 0 -10 -5 -12 -12 -8 -10 6 -10 5
-1 -8 7 -8 10 -18 6 -21 -3 -4 -2 -7 4 -7 5 0 10 -7 10 -15 0 -8 -4 -12 -9 -9
-4 3 -8 0 -8 -5 0 -6 5 -11 11 -11 5 0 7 -4 4 -10 -3 -5 -1 -10 6 -10 10 0 10
-3 1 -12 -15 -15 -16 -31 -1 -22 7 4 10 1 7 -7 -3 -8 -1 -26 3 -41 4 -16 3
-30 -2 -34 -6 -3 -5 -12 3 -21 16 -20 19 -43 5 -43 -9 0 -9 -2 -1 -8 6 -4 11
-14 12 -22 0 -8 4 -31 8 -50 4 -19 8 -54 8 -77 1 -24 4 -43 8 -43 3 0 5 -8 3
-17 -1 -10 3 -24 9 -32 9 -12 8 -13 -4 -6 -12 6 -13 5 -3 -6 17 -17 17 -32 1
-23 -10 6 -10 5 -1 -8 7 -8 10 -18 6 -21 -3 -4 0 -7 7 -7 11 0 11 -3 2 -12 -7
-7 -12 -17 -12 -23 0 -5 5 -3 11 5 9 12 10 12 5 -3 -3 -10 -1 -27 4 -37 6 -11
6 -21 1 -24 -5 -4 -3 -20 6 -37 13 -26 13 -33 2 -40 -12 -7 -12 -9 0 -9 7 0
11 -6 7 -15 -3 -8 0 -15 6 -15 7 0 3 -7 -8 -15 -16 -13 -16 -14 -1 -9 20 7 22
-6 5 -25 -8 -8 -8 -11 -2 -8 7 4 14 -3 16 -18 3 -15 1 -25 -6 -25 -6 0 -5 -4
3 -9 8 -5 12 -19 9 -35 -3 -14 -1 -23 3 -20 5 3 9 -4 9 -15 0 -12 5 -21 10
-21 6 0 10 -7 10 -15 0 -8 5 -15 11 -15 7 0 9 -9 6 -21 -4 -16 -3 -18 9 -8 9
7 14 8 14 1 0 -6 9 -14 21 -17 12 -4 18 -12 15 -21 -3 -8 -1 -14 4 -14 6 0 10
5 10 10 0 6 6 5 14 -2 10 -9 11 -15 2 -20 -8 -6 -8 -8 1 -8 6 0 14 4 17 9 9
15 45 1 39 -15 -3 -8 -1 -14 5 -14 6 0 12 4 14 10 2 6 18 4 41 -4 20 -7 34
-16 30 -20 -5 -4 1 -6 12 -4 11 1 19 -2 18 -8 -1 -6 4 -11 12 -11 10 0 11 5 4
18 -7 15 -6 17 6 13 8 -4 15 -14 15 -23 0 -10 3 -12 8 -5 11 18 105 14 119 -5
10 -13 14 -14 25 -3 11 11 10 12 -4 7 -10 -4 -18 -3 -18 2 0 11 27 14 50 7 13
-5 13 -6 0 -15 -13 -9 -13 -10 0 -6 8 2 14 10 12 16 -3 17 16 13 28 -6 10 -16
10 -16 5 2 -4 17 0 21 21 23 14 1 23 -2 19 -7 -3 -5 0 -13 6 -17 7 -4 9 -3 5
4 -8 13 10 25 44 30 14 2 35 10 48 18 16 11 27 12 36 5 9 -7 17 -5 29 10 16
19 44 18 32 -1 -3 -5 -1 -11 4 -15 10 -5 7 27 -3 44 -3 4 5 7 19 6 18 -2 22 1
18 13 -4 10 -2 13 5 8 8 -4 16 2 21 16 6 13 10 17 10 11 1 -7 5 -13 10 -13 5
0 7 9 4 20 -4 14 -1 20 7 18 7 -2 15 3 18 11 3 8 0 11 -7 7 -6 -4 -3 6 6 23
10 16 22 27 28 23 5 -3 1 4 -9 16 -11 12 -15 22 -9 22 9 0 13 31 13 89 0 13 5
30 11 37 8 10 8 14 0 14 -7 0 -8 8 0 27 6 16 10 29 10 31 -1 1 0 5 0 10 1 4 0
15 -1 25 -1 10 4 26 12 35 11 13 11 14 0 8 -11 -7 -12 -4 -3 12 6 11 8 28 4
38 -5 13 -3 15 8 9 12 -8 12 -6 0 8 -12 16 -9 21 12 18 4 -1 2 8 -5 19 -10 15
-10 22 0 32 6 6 12 17 12 23 0 5 -5 3 -11 -5 -8 -11 -9 -9 -3 10 4 14 7 33 6
43 0 11 4 15 11 10 7 -4 6 0 -2 10 -7 9 -9 17 -4 17 6 0 9 14 7 30 -2 19 1 30
9 30 9 0 8 3 -1 9 -11 7 -11 9 2 14 9 4 16 12 16 19 0 9 -3 8 -10 -2 -7 -11
-9 -6 -7 18 1 23 6 31 16 27 10 -4 11 -2 4 7 -6 7 -9 27 -8 43 4 40 3 39 18
29 7 -5 5 -2 -4 7 -12 11 -14 20 -8 31 5 9 10 35 11 57 1 26 5 38 12 34 6 -4
5 1 -3 10 -7 9 -9 17 -4 17 6 0 9 14 7 30 -2 17 0 30 5 30 4 0 6 12 3 26 -3
16 1 30 9 35 12 7 12 9 0 9 -11 0 -11 3 0 17 8 9 9 14 2 10 -7 -5 -9 0 -6 13
3 11 10 17 16 13 6 -4 7 -1 1 8 -11 19 -5 82 9 91 9 6 8 8 -1 8 -7 0 -10 5 -7
10 4 6 11 7 17 4 5 -4 2 6 -8 22 -11 15 -14 25 -7 21 26 -16 9 57 -19 84 -27
25 -128 75 -168 83 -3 1 -11 5 -17 9 -7 5 -13 6 -13 3 0 -3 -18 1 -40 9 -22 8
-41 14 -43 14 -1 -1 -18 2 -37 5 -19 3 -48 8 -65 11 -16 3 -73 7 -125 11 -52
3 -98 8 -101 10 -3 2 -8 2 -11 -1z"/>
<path d="M1380 180 c-9 -6 -10 -10 -3 -10 6 0 15 5 18 10 8 12 4 12 -15 0z"/>
<path d="M1230 115 c0 -8 4 -15 8 -15 5 0 9 7 9 15 0 8 -4 15 -9 15 -4 0 -8
-7 -8 -15z"/>
<path d="M718 108 c-5 -11 0 -15 15 -14 13 1 21 -4 19 -12 -1 -8 2 -11 8 -7 8
5 8 11 -1 21 -6 7 -15 12 -19 9 -5 -3 -10 0 -12 7 -3 8 -6 7 -10 -4z"/>
<path d="M1146 87 c3 -10 9 -15 12 -12 3 3 0 11 -7 18 -10 9 -11 8 -5 -6z"/>
<path d="M920 69 c0 -5 -4 -8 -9 -4 -5 3 -12 1 -15 -4 -4 -5 2 -8 11 -7 15 3
33 26 19 26 -3 0 -6 -5 -6 -11z"/>
</g>
</svg>
